<svg xmlns:xlink="http://www.w3.org/1999/xlink" id="wave" style="transform:rotate(180deg); transition: 0.3s" viewBox="0 0 1440 430" version="1.1" xmlns="http://www.w3.org/2000/svg"><defs><linearGradient id="sw-gradient-0" x1="0" x2="0" y1="1" y2="0"><stop stop-color="rgba(80.008, 80.008, 80.008, 1)" offset="0%"/><stop stop-color="rgba(255, 179, 11, 1)" offset="100%"/></linearGradient></defs><path style="transform:translate(0, 0px); opacity:1" fill="url(#sw-gradient-0)" d="M0,129L80,121.8C160,115,320,100,480,143.3C640,186,800,287,960,293.8C1120,301,1280,215,1440,157.7C1600,100,1760,72,1920,57.3C2080,43,2240,43,2400,100.3C2560,158,2720,272,2880,286.7C3040,301,3200,215,3360,186.3C3520,158,3680,186,3840,164.8C4000,143,4160,72,4320,100.3C4480,129,4640,258,4800,265.2C4960,272,5120,158,5280,107.5C5440,57,5600,72,5760,107.5C5920,143,6080,201,6240,243.7C6400,287,6560,315,6720,315.3C6880,315,7040,287,7200,258C7360,229,7520,201,7680,179.2C7840,158,8000,143,8160,179.2C8320,215,8480,301,8640,322.5C8800,344,8960,301,9120,293.8C9280,287,9440,315,9600,329.7C9760,344,9920,344,10080,329.7C10240,315,10400,287,10560,243.7C10720,201,10880,143,11040,136.2C11200,129,11360,172,11440,193.5L11520,215L11520,430L11440,430C11360,430,11200,430,11040,430C10880,430,10720,430,10560,430C10400,430,10240,430,10080,430C9920,430,9760,430,9600,430C9440,430,9280,430,9120,430C8960,430,8800,430,8640,430C8480,430,8320,430,8160,430C8000,430,7840,430,7680,430C7520,430,7360,430,7200,430C7040,430,6880,430,6720,430C6560,430,6400,430,6240,430C6080,430,5920,430,5760,430C5600,430,5440,430,5280,430C5120,430,4960,430,4800,430C4640,430,4480,430,4320,430C4160,430,4000,430,3840,430C3680,430,3520,430,3360,430C3200,430,3040,430,2880,430C2720,430,2560,430,2400,430C2240,430,2080,430,1920,430C1760,430,1600,430,1440,430C1280,430,1120,430,960,430C800,430,640,430,480,430C320,430,160,430,80,430L0,430Z"/></svg>